<?xml version="1.0" encoding="UTF-8" standalone="no"?>
<!-- Created with Inkscape (http://www.inkscape.org/) -->

<svg
        xmlns:dc="http://purl.org/dc/elements/1.1/"
        xmlns:cc="http://creativecommons.org/ns#"
        xmlns:rdf="http://www.w3.org/1999/02/22-rdf-syntax-ns#"
        xmlns:sodipodi="http://sodipodi.sourceforge.net/DTD/sodipodi-0.dtd"
        xmlns:inkscape="http://www.inkscape.org/namespaces/inkscape"
        xmlns="http://www.w3.org/2000/svg"
        id="svg4078"
        sodipodi:docname="Cogwheel-by-Rones.svg"
        viewBox="0 0 451.77655 489.47751"
        version="1.1"
        inkscape:version="0.92.4 (5da689c313, 2019-01-14)"
        width="451.77655"
        height="489.47751"
        inkscape:export-filename="C:\Users\Numerlor\Desktop\path3232.png"
        inkscape:export-xdpi="6.7998219"
        inkscape:export-ydpi="6.7998219">
    <defs
            id="defs4536"/>
    <sodipodi:namedview
            id="base"
            bordercolor="#666666"
            inkscape:pageshadow="2"
            inkscape:window-y="-8"
            pagecolor="#ffffff"
            inkscape:window-height="1018"
            inkscape:window-maximized="1"
            inkscape:zoom="1.8101934"
            inkscape:window-x="-8"
            showgrid="false"
            borderopacity="1.0"
            inkscape:current-layer="layer3"
            inkscape:cx="204.13028"
            inkscape:cy="205.17975"
            inkscape:window-width="1920"
            inkscape:pageopacity="0.0"
            inkscape:document-units="px"
            inkscape:snap-object-midpoints="true"/>
    <g
            id="layer1"
            inkscape:label="Layer 1"
            inkscape:groupmode="layer"
            transform="translate(-259.37076,-404.16662)">
        <path
                id="path4050"
                style="fill:#000100;fill-opacity:1"
                d="m 469.34,451.62 -8.125,46.281 0.0313,0.031 c -9.9316,1.6228 -19.54,4.2238 -28.719,7.6875 v -0.031 l -30.156,-36.031 -28.344,16.375 16.094,44.125 0.0624,0.031 c -7.6842,6.3076 -14.727,13.375 -21.031,21.063 l -0.0312,-0.094 -44.125,-16.094 -16.375,28.344 36.031,30.188 c -3.458,9.1707 -6.0358,18.765 -7.6562,28.688 l -0.0313,-0.031 -46.281,8.125 v 32.75 l 46.281,8.125 0.0313,-0.031 c 1.6203,9.9223 4.1982,19.517 7.6562,28.688 l -36.031,30.188 16.375,28.344 44.125,-16.094 0.0312,-0.094 c 6.3041,7.687 13.347,14.755 21.031,21.062 l -0.0624,0.031 -16.094,44.125 28.344,16.375 30.156,-36.031 v -0.0312 c 9.1783,3.4637 18.787,6.0647 28.719,7.6875 l -0.0313,0.031 8.125,46.281 h 32.719 l 8.125,-46.281 -0.0312,-0.031 c 9.9296,-1.6184 19.541,-4.1977 28.719,-7.6563 l 30.187,36.031 28.344,-16.375 -16.125,-44.125 c 7.6669,-6.2915 14.706,-13.335 21,-21 l 44.156,16.094 16.344,-28.344 -36,-30.188 c 3.4588,-9.1719 6.0668,-18.764 7.6875,-28.688 l 46.281,-8.0937 v -32.75 l -46.281,-8.125 c -1.621,-9.9131 -4.2322,-19.494 -7.6875,-28.656 l 36,-30.188 -16.344,-28.344 -44.156,16.094 c -6.2938,-7.6652 -13.333,-14.708 -21,-21 l 16.125,-44.125 -28.344,-16.375 -30.187,36.031 c -9.1775,-3.4583 -18.789,-6.0378 -28.719,-7.6562 l 0.0312,-0.031 -8.125,-46.281 H 469.34 Z m 16.375,79.688 c 63.71,0 115.38,51.634 115.38,115.34 0,63.71 -51.665,115.34 -115.38,115.34 -63.71,0 -115.34,-51.634 -115.34,-115.34 0,-63.71 51.634,-115.34 115.34,-115.34 z"
                inkscape:connector-curvature="0"
                inkscape:export-filename="C:\Users\Numerlor\Desktop\path4050.png"
                inkscape:export-xdpi="63.005077"
                inkscape:export-ydpi="63.005077"/>
    </g>
    <metadata
            id="metadata4533">
        <rdf:RDF>
            <cc:Work>
                <dc:format>image/svg+xml</dc:format>
                <dc:type
                        rdf:resource="http://purl.org/dc/dcmitype/StillImage"/>
                <cc:license
                        rdf:resource="http://creativecommons.org/publicdomain/zero/1.0/"/>
                <dc:publisher>
                    <cc:Agent
                            rdf:about="http://openclipart.org/">
                        <dc:title>Openclipart</dc:title>
                    </cc:Agent>
                </dc:publisher>
                <dc:title>Cogwheel symbol by Rones</dc:title>
                <dc:date>2011-02-08T14:40:25</dc:date>
                <dc:description>a red cog</dc:description>
                <dc:source>https://openclipart.org/detail/117439/mechanics-by-rones</dc:source>
                <dc:creator>
                    <cc:Agent>
                        <dc:title>rones</dc:title>
                    </cc:Agent>
                </dc:creator>
                <dc:subject>
                    <rdf:Bag>
                        <rdf:li>cog</rdf:li>
                        <rdf:li>cogwheel</rdf:li>
                        <rdf:li>iron</rdf:li>
                        <rdf:li>machinery</rdf:li>
                        <rdf:li>mechanics</rdf:li>
                        <rdf:li>red</rdf:li>
                        <rdf:li>spokes</rdf:li>
                        <rdf:li>symbol</rdf:li>
                        <rdf:li>wheel</rdf:li>
                        <rdf:li>????????</rdf:li>
                        <rdf:li>??????</rdf:li>
                        <rdf:li>??????????</rdf:li>
                        <rdf:li>??????????</rdf:li>
                    </rdf:Bag>
                </dc:subject>
            </cc:Work>
            <cc:License
                    rdf:about="http://creativecommons.org/publicdomain/zero/1.0/">
                <cc:permits
                        rdf:resource="http://creativecommons.org/ns#Reproduction"/>
                <cc:permits
                        rdf:resource="http://creativecommons.org/ns#Distribution"/>
                <cc:permits
                        rdf:resource="http://creativecommons.org/ns#DerivativeWorks"/>
            </cc:License>
        </rdf:RDF>
    </metadata>
    <g
            inkscape:groupmode="layer"
            id="layer3"
            inkscape:label="Layer 2"
            transform="translate(30.309244,46.453388)">
        <path
                style="fill:#007bff;stroke-width:0.68749994;fill-opacity:1"
                d="m 78.041427,442.30131 c -42.76668,-5.1424 -71.2191237,-23.02106 -92.111834,-57.88033 -6.14621,-10.25488 -17.30906,-39.5813 -16.156,-42.44413 0.2145,-0.53255 33.8471804,-22.46984 74.739284,-48.74953 40.89212,-26.27969 80.246743,-51.59914 87.454753,-56.26542 13.10543,-8.4842 13.10543,-8.4842 14.82481,-6.1875 5.07075,6.7733 12.98323,13.04756 21.78107,17.27143 2.58185,1.23955 5.04572,2.47302 5.47526,2.74099 0.54115,0.33763 0.0905,1.91469 -1.4678,5.13574 -2.7533,5.69144 -81.140143,179.26777 -83.144963,184.1125 -1.43344,3.46401 -1.43344,3.46401 -11.39458,2.26625 z"
                id="path5234"
                inkscape:connector-curvature="0"/>
        <path
                style="fill:#010101;stroke-width:0.54999995"
                d="m -9.2704105,231.62157 c 0.201668,-0.20166 0.531668,-0.20166 0.733331,0 0.201669,0.20167 0.03669,0.36667 -0.366663,0.36667 -0.403337,0 -0.568337,-0.165 -0.366668,-0.36667 z"
                id="path5232"
                inkscape:connector-curvature="0"/>
        <path
                style="fill:#007bff;stroke-width:0.68749994;fill-opacity:1"
                d="m 242.51153,163.59805 c -4.51317,-5.55859 -10.96011,-10.41932 -19.22455,-14.49454 -6.58281,-3.24602 -7.3357,-4.38074 -4.95632,-7.46994 0.43507,-0.56487 83.74519,-185.405986 84.60691,-187.718365 0.64156,-1.721596 29.41199,2.94635 40.55409,6.579815 28.8859,9.419768 56.17981,35.6263452 69.01754,66.268014 4.00407,9.5571 9.41961,26.44393 8.92672,27.83547 -0.29071,0.82077 -172.62064,112.492176 -174.86781,113.315996 -0.23393,0.0858 -2.05939,-1.85664 -4.05658,-4.31645 z"
                id="path5209"
                inkscape:connector-curvature="0"/>
        <ellipse
                id="path30"
                cx="195.80467"
                cy="196.33543"
                rx="37.369659"
                ry="37.403"
                style="fill:#000000;stroke-width:1.13346469"/>
    </g>
</svg>
